<svg width="20" height="20" viewBox="0 0 92 96" fill="none" xmlns="http://www.w3.org/2000/svg">
<path d="M77.4241 10.3549C75.3519 10.7203 73.3272 11.3177 71.3881 12.1359C69.7728 12.8175 68.2258 13.6513 66.7681 14.6263C64.458 13.3681 50.1277 5.78838 34.1075 11.789C18.4232 17.6654 8.5372 33.7828 9.22969 49.8639C9.94285 66.2971 21.4154 76.2222 23.0846 77.6201C25.6116 79.7377 35.9266 87.8145 50.7892 86.515C64.8043 85.2931 73.3157 76.5587 75.2949 74.4205C72.0829 73.3172 69.1659 71.4911 66.7681 69.0825C64.8921 70.76 58.2463 76.2843 48.2983 76.5536C33.6682 76.947 25.0897 65.6136 24.5264 64.8111C21.4317 60.5295 19.5643 55.4816 19.1261 50.2135C18.688 44.9454 19.6959 39.6575 22.0407 34.9218C27.3894 24.1579 37.756 20.834 39.42 20.3318C45.6049 18.5063 52.2158 18.7554 58.2463 21.0411C55.8384 23.3734 53.9075 26.1538 52.5617 29.2266C51.0114 28.8435 44.717 27.487 38.3554 31.0077C35.2517 32.7045 32.6784 35.2303 30.9214 38.3044C29.1644 41.3785 28.2926 44.8804 28.403 48.4211C28.5133 51.9617 29.6013 55.4024 31.5462 58.3607C33.4911 61.319 36.2167 63.6791 39.42 65.1787C42.9449 66.8441 46.8825 67.4284 50.7379 66.8581C54.5933 66.2879 58.1944 64.5886 61.0886 61.9739C59.9362 59.8719 55.5022 51.2048 58.2463 40.6222C59.5237 35.862 61.9859 31.5045 65.4024 27.9576C68.8188 24.4107 73.0779 21.7905 77.7806 20.3421C80.5439 19.5214 83.4222 19.1576 86.3024 19.2652C87.3618 20.8806 88.4418 22.6565 89.5012 24.6032C90.4418 26.3273 91.2635 27.9996 91.9869 29.5839C81.9097 26.5499 71.2744 31.9085 67.8326 41.3263C64.4787 50.5059 69.0626 60.5346 76.7161 64.8111C83.4342 68.5596 90.3643 66.7113 91.9869 66.2349C91.0464 68.4768 81.9407 89.1554 58.9543 94.7108C41.5905 98.889 23.5238 92.702 12.072 79.7325C5.84314 72.6416 1.81879 63.8813 0.49391 54.5292C-0.830969 45.177 0.601399 35.6408 4.61484 27.0935C14.8729 5.58646 37.2495 1.09244 39.0686 0.761086C59.8329 -3.03915 75.0882 8.53242 77.4241 10.3549Z" fill="#F7F7F7"/>
</svg>
